<?xml version="1.0" standalone="no"?>
<!DOCTYPE svg PUBLIC "-//W3C//DTD SVG 20010904//EN"
 "http://www.w3.org/TR/2001/REC-SVG-20010904/DTD/svg10.dtd">
<svg version="1.0" xmlns="http://www.w3.org/2000/svg"
 width="256.000000pt" height="256.000000pt" viewBox="0 0 256.000000 256.000000"
 preserveAspectRatio="xMidYMid meet">

<g transform="translate(0.000000,256.000000) scale(0.100000,-0.100000)"
fill="#000000" stroke="none">
<path d="M80 1280 l0 -1200 1200 0 1200 0 0 1200 0 1200 -1200 0 -1200 0 0
-1200z m1390 710 l0 -450 -675 0 -675 0 0 450 0 450 675 0 675 0 0 -450z m136
376 c18 -19 18 -73 -1 -92 -13 -14 -17 -14 -30 0 -18 18 -20 72 -2 91 15 18
16 18 33 1z m94 -36 c0 -27 5 -50 10 -50 6 0 10 -4 10 -10 0 -5 -13 -10 -30
-10 -16 0 -30 5 -30 10 0 6 5 10 10 10 14 0 12 58 -2 62 -9 3 -8 9 2 21 24 26
30 20 30 -33z m106 36 c18 -19 18 -73 -1 -92 -13 -14 -17 -14 -30 0 -18 18
-20 72 -2 91 15 18 16 18 33 1z m94 -36 c0 -27 5 -50 10 -50 6 0 10 -4 10 -10
0 -5 -13 -10 -30 -10 -16 0 -30 5 -30 10 0 6 5 10 10 10 14 0 12 58 -2 62 -9
3 -8 9 2 21 24 26 30 20 30 -33z m100 0 c0 -27 5 -50 10 -50 6 0 10 -4 10 -10
0 -5 -13 -10 -30 -10 -16 0 -30 5 -30 10 0 6 5 10 10 10 14 0 12 58 -2 62 -9
3 -8 9 2 21 24 26 30 20 30 -33z m106 36 c18 -19 18 -73 -1 -92 -13 -14 -17
-14 -30 0 -18 18 -20 72 -2 91 15 18 16 18 33 1z m100 0 c18 -19 18 -73 -1
-92 -13 -14 -17 -14 -30 0 -18 18 -20 72 -2 91 15 18 16 18 33 1z m100 0 c18
-19 18 -73 -1 -92 -13 -14 -17 -14 -30 0 -18 18 -20 72 -2 91 15 18 16 18 33
1z m-700 -160 c18 -19 18 -73 -1 -92 -13 -14 -17 -14 -30 0 -18 18 -20 72 -2
91 15 18 16 18 33 1z m94 -36 c0 -27 5 -50 10 -50 6 0 10 -4 10 -10 0 -5 -13
-10 -30 -10 -16 0 -30 5 -30 10 0 6 5 10 10 10 14 0 12 58 -2 62 -9 3 -8 9 2
21 24 26 30 20 30 -33z m106 36 c18 -19 18 -73 -1 -92 -13 -14 -17 -14 -30 0
-18 18 -20 72 -2 91 15 18 16 18 33 1z m100 0 c18 -19 18 -73 -1 -92 -13 -14
-17 -14 -30 0 -18 18 -20 72 -2 91 15 18 16 18 33 1z m94 -36 c0 -27 5 -50 10
-50 6 0 10 -4 10 -10 0 -5 -13 -10 -30 -10 -16 0 -30 5 -30 10 0 6 5 10 10 10
14 0 12 58 -2 62 -9 3 -8 9 2 21 24 26 30 20 30 -33z m106 36 c18 -19 18 -73
-1 -92 -13 -14 -17 -14 -30 0 -18 18 -20 72 -2 91 15 18 16 18 33 1z m94 -36
c0 -27 5 -50 10 -50 6 0 10 -4 10 -10 0 -5 -13 -10 -30 -10 -16 0 -30 5 -30
10 0 6 5 10 10 10 14 0 12 58 -2 62 -9 3 -8 9 2 21 24 26 30 20 30 -33z m100
0 c0 -27 5 -50 10 -50 6 0 10 -4 10 -10 0 -5 -13 -10 -30 -10 -16 0 -30 5 -30
10 0 6 5 10 10 10 14 0 12 58 -2 62 -9 3 -8 9 2 21 24 26 30 20 30 -33z m-694
-124 c18 -19 18 -73 -1 -92 -13 -14 -17 -14 -30 0 -18 18 -20 72 -2 91 15 18
16 18 33 1z m100 0 c18 -19 18 -73 -1 -92 -13 -14 -17 -14 -30 0 -18 18 -20
72 -2 91 15 18 16 18 33 1z m94 -36 c0 -27 5 -50 10 -50 6 0 10 -4 10 -10 0
-5 -13 -10 -30 -10 -16 0 -30 5 -30 10 0 6 5 10 10 10 14 0 12 58 -2 62 -9 3
-8 9 2 21 24 26 30 20 30 -33z m106 36 c18 -19 18 -73 -1 -92 -13 -14 -17 -14
-30 0 -18 18 -20 72 -2 91 15 18 16 18 33 1z m94 -36 c0 -27 5 -50 10 -50 6 0
10 -4 10 -10 0 -5 -13 -10 -30 -10 -16 0 -30 5 -30 10 0 6 5 10 10 10 14 0 12
58 -2 62 -9 3 -8 9 2 21 24 26 30 20 30 -33z m100 0 c0 -27 5 -50 10 -50 6 0
10 -4 10 -10 0 -5 -13 -10 -30 -10 -16 0 -30 5 -30 10 0 6 5 10 10 10 14 0 12
58 -2 62 -9 3 -8 9 2 21 24 26 30 20 30 -33z m106 36 c18 -19 18 -73 -1 -92
-13 -14 -17 -14 -30 0 -18 18 -20 72 -2 91 15 18 16 18 33 1z m94 -36 c0 -27
5 -50 10 -50 6 0 10 -4 10 -10 0 -5 -13 -10 -30 -10 -16 0 -30 5 -30 10 0 6 5
10 10 10 14 0 12 58 -2 62 -9 3 -8 9 2 21 24 26 30 20 30 -33z m-694 -124 c18
-19 18 -73 -1 -92 -13 -14 -17 -14 -30 0 -18 18 -20 72 -2 91 15 18 16 18 33
1z m94 -36 c0 -27 5 -50 10 -50 6 0 10 -4 10 -10 0 -5 -13 -10 -30 -10 -16 0
-30 5 -30 10 0 6 5 10 10 10 14 0 12 58 -2 62 -9 3 -8 9 2 21 24 26 30 20 30
-33z m106 36 c18 -19 18 -73 -1 -92 -13 -14 -17 -14 -30 0 -18 18 -20 72 -2
91 15 18 16 18 33 1z m94 -36 c0 -27 5 -50 10 -50 6 0 10 -4 10 -10 0 -5 -13
-10 -30 -10 -16 0 -30 5 -30 10 0 6 5 10 10 10 14 0 12 58 -2 62 -9 3 -8 9 2
21 24 26 30 20 30 -33z m100 0 c0 -27 5 -50 10 -50 6 0 10 -4 10 -10 0 -5 -13
-10 -30 -10 -16 0 -30 5 -30 10 0 6 5 10 10 10 14 0 12 58 -2 62 -9 3 -8 9 2
21 24 26 30 20 30 -33z m106 36 c18 -19 18 -73 -1 -92 -13 -14 -17 -14 -30 0
-18 18 -20 72 -2 91 15 18 16 18 33 1z m94 -36 c0 -27 5 -50 10 -50 6 0 10 -4
10 -10 0 -5 -13 -10 -30 -10 -16 0 -30 5 -30 10 0 6 5 10 10 10 14 0 12 58 -2
62 -9 3 -8 9 2 21 24 26 30 20 30 -33z m106 36 c18 -19 18 -73 -1 -92 -13 -14
-17 -14 -30 0 -18 18 -20 72 -2 91 15 18 16 18 33 1z m-700 -160 c18 -19 18
-73 -1 -92 -13 -14 -17 -14 -30 0 -18 18 -20 72 -2 91 15 18 16 18 33 1z m100
0 c18 -19 18 -73 -1 -92 -13 -14 -17 -14 -30 0 -18 18 -20 72 -2 91 15 18 16
18 33 1z m94 -36 c0 -27 5 -50 10 -50 6 0 10 -4 10 -10 0 -5 -13 -10 -30 -10
-16 0 -30 5 -30 10 0 6 5 10 10 10 14 0 12 58 -2 62 -9 3 -8 9 2 21 24 26 30
20 30 -33z m100 0 c0 -27 5 -50 10 -50 6 0 10 -4 10 -10 0 -5 -13 -10 -30 -10
-16 0 -30 5 -30 10 0 6 5 10 10 10 14 0 12 58 -2 62 -9 3 -8 9 2 21 24 26 30
20 30 -33z m106 36 c18 -19 18 -73 -1 -92 -13 -14 -17 -14 -30 0 -18 18 -20
72 -2 91 15 18 16 18 33 1z m100 0 c18 -19 18 -73 -1 -92 -13 -14 -17 -14 -30
0 -18 18 -20 72 -2 91 15 18 16 18 33 1z m100 0 c18 -19 18 -73 -1 -92 -13
-14 -17 -14 -30 0 -18 18 -20 72 -2 91 15 18 16 18 33 1z m100 0 c18 -19 18
-73 -1 -92 -13 -14 -17 -14 -30 0 -18 18 -20 72 -2 91 15 18 16 18 33 1z
m-700 -160 c18 -19 18 -73 -1 -92 -13 -14 -17 -14 -30 0 -18 18 -20 72 -2 91
15 18 16 18 33 1z m100 0 c18 -19 18 -73 -1 -92 -13 -14 -17 -14 -30 0 -18 18
-20 72 -2 91 15 18 16 18 33 1z m94 -36 c0 -27 5 -50 10 -50 6 0 10 -4 10 -10
0 -5 -13 -10 -30 -10 -16 0 -30 5 -30 10 0 6 5 10 10 10 14 0 12 58 -2 62 -9
3 -8 9 2 21 24 26 30 20 30 -33z m106 36 c18 -19 18 -73 -1 -92 -13 -14 -17
-14 -30 0 -18 18 -20 72 -2 91 15 18 16 18 33 1z m94 -36 c0 -27 5 -50 10 -50
6 0 10 -4 10 -10 0 -5 -13 -10 -30 -10 -16 0 -30 5 -30 10 0 6 5 10 10 10 14
0 12 58 -2 62 -9 3 -8 9 2 21 24 26 30 20 30 -33z m100 0 c0 -27 5 -50 10 -50
6 0 10 -4 10 -10 0 -5 -13 -10 -30 -10 -16 0 -30 5 -30 10 0 6 5 10 10 10 14
0 12 58 -2 62 -9 3 -8 9 2 21 24 26 30 20 30 -33z m106 36 c18 -19 18 -73 -1
-92 -13 -14 -17 -14 -30 0 -18 18 -20 72 -2 91 15 18 16 18 33 1z m94 -36 c0
-27 5 -50 10 -50 6 0 10 -4 10 -10 0 -5 -13 -10 -30 -10 -16 0 -30 5 -30 10 0
6 5 10 10 10 14 0 12 58 -2 62 -9 3 -8 9 2 21 24 26 30 20 30 -33z m-694 -104
c18 -19 18 -73 -1 -92 -13 -14 -17 -14 -30 0 -18 18 -20 72 -2 91 15 18 16 18
33 1z m94 -36 c0 -27 5 -50 10 -50 6 0 10 -4 10 -10 0 -5 -13 -10 -30 -10 -16
0 -30 5 -30 10 0 6 5 10 10 10 14 0 12 58 -2 62 -9 3 -8 9 2 21 24 26 30 20
30 -33z m106 36 c18 -19 18 -73 -1 -92 -13 -14 -17 -14 -30 0 -18 18 -20 72
-2 91 15 18 16 18 33 1z m94 -36 c0 -27 5 -50 10 -50 6 0 10 -4 10 -10 0 -5
-13 -10 -30 -10 -16 0 -30 5 -30 10 0 6 5 10 10 10 14 0 12 58 -2 62 -9 3 -8
9 2 21 24 26 30 20 30 -33z m100 0 c0 -27 5 -50 10 -50 6 0 10 -4 10 -10 0 -5
-13 -10 -30 -10 -16 0 -30 5 -30 10 0 6 5 10 10 10 14 0 12 58 -2 62 -9 3 -8
9 2 21 24 26 30 20 30 -33z m106 36 c18 -19 18 -73 -1 -92 -13 -14 -17 -14
-30 0 -18 18 -20 72 -2 91 15 18 16 18 33 1z m100 0 c18 -19 18 -73 -1 -92
-13 -14 -17 -14 -30 0 -18 18 -20 72 -2 91 15 18 16 18 33 1z m100 0 c18 -19
18 -73 -1 -92 -13 -14 -17 -14 -30 0 -18 18 -20 72 -2 91 15 18 16 18 33 1z
m-700 -160 c18 -19 18 -73 -1 -92 -13 -14 -17 -14 -30 0 -18 18 -20 72 -2 91
15 18 16 18 33 1z m94 -36 c0 -27 5 -50 10 -50 6 0 10 -4 10 -10 0 -5 -13 -10
-30 -10 -16 0 -30 5 -30 10 0 6 5 10 10 10 14 0 12 58 -2 62 -9 3 -8 9 2 21
24 26 30 20 30 -33z m106 36 c18 -19 18 -73 -1 -92 -13 -14 -17 -14 -30 0 -18
18 -20 72 -2 91 15 18 16 18 33 1z m100 0 c18 -19 18 -73 -1 -92 -13 -14 -17
-14 -30 0 -18 18 -20 72 -2 91 15 18 16 18 33 1z m100 0 c18 -19 18 -73 -1
-92 -13 -14 -17 -14 -30 0 -18 18 -20 72 -2 91 15 18 16 18 33 1z m94 -36 c0
-27 5 -50 10 -50 6 0 10 -4 10 -10 0 -5 -13 -10 -30 -10 -16 0 -30 5 -30 10 0
6 5 10 10 10 14 0 12 58 -2 62 -9 3 -8 9 2 21 24 26 30 20 30 -33z m106 36
c18 -19 18 -73 -1 -92 -13 -14 -17 -14 -30 0 -18 18 -20 72 -2 91 15 18 16 18
33 1z m100 0 c18 -19 18 -73 -1 -92 -13 -14 -17 -14 -30 0 -18 18 -20 72 -2
91 15 18 16 18 33 1z m-686 -176 c0 -5 -9 -10 -20 -10 -11 0 -20 -4 -20 -8 0
-4 9 -14 20 -22 24 -17 26 -36 6 -56 -17 -16 -46 -19 -46 -4 0 6 9 10 20 10
13 0 20 7 20 20 0 11 -4 20 -10 20 -5 0 -10 -4 -10 -10 0 -5 -4 -10 -10 -10
-5 0 -10 18 -10 40 0 38 2 40 30 40 17 0 30 -4 30 -10z m86 -4 c18 -19 18 -73
-1 -92 -13 -14 -17 -14 -30 0 -18 18 -20 72 -2 91 15 18 16 18 33 1z m214 -46
c0 -33 -4 -60 -10 -60 -5 0 -10 5 -10 10 0 6 -9 10 -20 10 -16 0 -20 7 -20 35
0 40 16 64 43 65 14 0 17 -9 17 -60z m100 0 l0 -60 -30 0 -30 0 0 60 0 60 30
0 30 0 0 -60z m186 46 c17 -18 18 -62 2 -70 -10 -5 -10 -7 0 -12 22 -10 12
-24 -18 -24 -35 0 -38 10 -10 30 21 15 28 70 10 70 -5 0 -10 -4 -10 -10 0 -5
-4 -10 -10 -10 -5 0 -10 9 -10 20 0 23 25 27 46 6z m100 0 c31 -31 10 -106
-30 -106 -13 0 -16 12 -16 60 0 48 3 60 16 60 8 0 22 -6 30 -14z m-686 -176
c0 -5 -9 -10 -20 -10 -11 0 -20 -4 -20 -8 0 -4 9 -14 20 -22 24 -17 26 -36 6
-56 -17 -16 -46 -19 -46 -4 0 6 9 10 20 10 13 0 20 7 20 20 0 11 -4 20 -10 20
-5 0 -10 -4 -10 -10 0 -5 -4 -10 -10 -10 -5 0 -10 18 -10 40 0 38 2 40 30 40
17 0 30 -4 30 -10z m80 -10 c0 -11 5 -20 10 -20 6 0 10 -18 10 -40 0 -39 -12
-53 -24 -27 -5 10 -7 10 -12 0 -12 -27 -24 -11 -24 32 0 42 14 74 33 75 4 0 7
-9 7 -20z m220 -40 l0 -60 -30 0 c-16 0 -30 5 -30 10 0 6 9 10 20 10 22 0 27
15 8 24 -10 5 -10 7 0 12 14 7 16 44 2 44 -5 0 -10 -4 -10 -10 0 -5 -4 -10
-10 -10 -5 0 -10 9 -10 20 0 16 7 20 30 20 l30 0 0 -60z m86 46 c18 -19 18
-73 -1 -92 -13 -14 -17 -14 -30 0 -18 18 -20 72 -2 91 15 18 16 18 33 1z m200
0 c17 -18 18 -62 2 -70 -10 -5 -10 -7 0 -12 22 -10 12 -24 -18 -24 -35 0 -38
10 -10 30 21 15 28 70 10 70 -5 0 -10 -4 -10 -10 0 -5 -4 -10 -10 -10 -5 0
-10 9 -10 20 0 23 25 27 46 6z m100 0 c31 -31 10 -106 -30 -106 -13 0 -16 12
-16 60 0 48 3 60 16 60 8 0 22 -6 30 -14z m-20 -160 c20 -20 19 -113 -1 -133
-9 -8 -19 -12 -23 -8 -4 4 -1 10 6 12 15 6 17 123 2 123 -5 0 -10 5 -10 10 0
14 9 12 26 -4z m-666 -16 c0 -5 -9 -10 -20 -10 -11 0 -20 -4 -20 -8 0 -4 9
-14 20 -22 24 -17 26 -36 6 -56 -17 -16 -46 -19 -46 -4 0 6 9 10 20 10 13 0
20 7 20 20 0 11 -4 20 -10 20 -5 0 -10 -4 -10 -10 0 -5 -4 -10 -10 -10 -5 0
-10 18 -10 40 0 38 2 40 30 40 17 0 30 -4 30 -10z m86 -4 c18 -19 18 -73 -1
-92 -13 -14 -17 -14 -30 0 -18 18 -20 72 -2 91 15 18 16 18 33 1z m214 -46 c0
-33 -4 -60 -10 -60 -5 0 -10 5 -10 10 0 6 -9 10 -20 10 -16 0 -20 7 -20 35 0
40 16 64 43 65 14 0 17 -9 17 -60z m100 0 c0 -33 -4 -60 -10 -60 -5 0 -10 5
-10 10 0 6 -9 10 -20 10 -16 0 -20 7 -20 35 0 40 16 64 43 65 14 0 17 -9 17
-60z m180 20 c0 -11 -4 -20 -10 -20 -5 0 -10 9 -10 20 0 11 5 20 10 20 6 0 10
-9 10 -20z m0 -70 c0 -5 -4 -10 -10 -10 -5 0 -10 5 -10 10 0 6 5 10 10 10 6 0
10 -4 10 -10z"/>
<path d="M180 1990 l0 -390 615 0 615 0 0 390 0 390 -615 0 -615 0 0 -390z
m290 170 l0 -110 -30 0 -30 0 0 110 0 110 30 0 30 0 0 -110z m240 0 l0 -110
-30 0 -30 0 0 110 0 110 30 0 30 0 0 -110z m170 -30 c0 -27 3 -30 30 -30 25 0
30 -4 30 -25 0 -21 5 -25 30 -25 l30 0 0 -60 0 -60 -30 0 c-25 0 -30 -4 -30
-25 0 -21 -5 -25 -30 -25 -27 0 -30 -3 -30 -30 0 -27 -3 -30 -30 -30 -27 0
-30 3 -30 30 0 27 3 30 30 30 25 0 30 4 30 25 0 21 5 25 30 25 l30 0 0 60 0
60 -30 0 c-25 0 -30 4 -30 25 0 21 -5 25 -30 25 -27 0 -30 3 -30 30 0 27 3 30
30 30 27 0 30 -3 30 -30z m-470 -170 c0 -27 3 -30 30 -30 25 0 30 -4 30 -25 0
-25 1 -25 90 -25 89 0 90 0 90 25 0 21 5 25 30 25 27 0 30 3 30 30 0 27 3 30
30 30 27 0 30 -3 30 -30 0 -27 -3 -30 -30 -30 -25 0 -30 -4 -30 -25 0 -21 -5
-25 -30 -25 -27 0 -30 -3 -30 -30 l0 -30 -90 0 -90 0 0 30 c0 27 -3 30 -30 30
-25 0 -30 4 -30 25 0 21 -5 25 -30 25 -27 0 -30 3 -30 30 0 27 3 30 30 30 27
0 30 -3 30 -30z m880 -110 l0 -30 -145 0 -145 0 0 30 0 30 145 0 145 0 0 -30z"/>
<path d="M1580 2320 c0 -22 5 -40 10 -40 6 0 10 18 10 40 0 22 -4 40 -10 40
-5 0 -10 -18 -10 -40z"/>
<path d="M1780 2320 c0 -22 5 -40 10 -40 6 0 10 18 10 40 0 22 -4 40 -10 40
-5 0 -10 -18 -10 -40z"/>
<path d="M2080 2320 c0 -22 5 -40 10 -40 6 0 10 18 10 40 0 22 -4 40 -10 40
-5 0 -10 -18 -10 -40z"/>
<path d="M2180 2320 c0 -22 5 -40 10 -40 6 0 10 18 10 40 0 22 -4 40 -10 40
-5 0 -10 -18 -10 -40z"/>
<path d="M2280 2320 c0 -22 5 -40 10 -40 6 0 10 18 10 40 0 22 -4 40 -10 40
-5 0 -10 -18 -10 -40z"/>
<path d="M1580 2160 c0 -22 5 -40 10 -40 6 0 10 18 10 40 0 22 -4 40 -10 40
-5 0 -10 -18 -10 -40z"/>
<path d="M1780 2160 c0 -22 5 -40 10 -40 6 0 10 18 10 40 0 22 -4 40 -10 40
-5 0 -10 -18 -10 -40z"/>
<path d="M1880 2160 c0 -22 5 -40 10 -40 6 0 10 18 10 40 0 22 -4 40 -10 40
-5 0 -10 -18 -10 -40z"/>
<path d="M2080 2160 c0 -22 5 -40 10 -40 6 0 10 18 10 40 0 22 -4 40 -10 40
-5 0 -10 -18 -10 -40z"/>
<path d="M1580 2000 c0 -22 5 -40 10 -40 6 0 10 18 10 40 0 22 -4 40 -10 40
-5 0 -10 -18 -10 -40z"/>
<path d="M1680 2000 c0 -22 5 -40 10 -40 6 0 10 18 10 40 0 22 -4 40 -10 40
-5 0 -10 -18 -10 -40z"/>
<path d="M1880 2000 c0 -22 5 -40 10 -40 6 0 10 18 10 40 0 22 -4 40 -10 40
-5 0 -10 -18 -10 -40z"/>
<path d="M2180 2000 c0 -22 5 -40 10 -40 6 0 10 18 10 40 0 22 -4 40 -10 40
-5 0 -10 -18 -10 -40z"/>
<path d="M1580 1840 c0 -22 5 -40 10 -40 6 0 10 18 10 40 0 22 -4 40 -10 40
-5 0 -10 -18 -10 -40z"/>
<path d="M1780 1840 c0 -22 5 -40 10 -40 6 0 10 18 10 40 0 22 -4 40 -10 40
-5 0 -10 -18 -10 -40z"/>
<path d="M2080 1840 c0 -22 5 -40 10 -40 6 0 10 18 10 40 0 22 -4 40 -10 40
-5 0 -10 -18 -10 -40z"/>
<path d="M2280 1840 c0 -22 5 -40 10 -40 6 0 10 18 10 40 0 22 -4 40 -10 40
-5 0 -10 -18 -10 -40z"/>
<path d="M1580 1680 c0 -22 5 -40 10 -40 6 0 10 18 10 40 0 22 -4 40 -10 40
-5 0 -10 -18 -10 -40z"/>
<path d="M1680 1680 c0 -22 5 -40 10 -40 6 0 10 18 10 40 0 22 -4 40 -10 40
-5 0 -10 -18 -10 -40z"/>
<path d="M1980 1680 c0 -22 5 -40 10 -40 6 0 10 18 10 40 0 22 -4 40 -10 40
-5 0 -10 -18 -10 -40z"/>
<path d="M2080 1680 c0 -22 5 -40 10 -40 6 0 10 18 10 40 0 22 -4 40 -10 40
-5 0 -10 -18 -10 -40z"/>
<path d="M2180 1680 c0 -22 5 -40 10 -40 6 0 10 18 10 40 0 22 -4 40 -10 40
-5 0 -10 -18 -10 -40z"/>
<path d="M2280 1680 c0 -22 5 -40 10 -40 6 0 10 18 10 40 0 22 -4 40 -10 40
-5 0 -10 -18 -10 -40z"/>
<path d="M1580 1520 c0 -22 5 -40 10 -40 6 0 10 18 10 40 0 22 -4 40 -10 40
-5 0 -10 -18 -10 -40z"/>
<path d="M1680 1520 c0 -22 5 -40 10 -40 6 0 10 18 10 40 0 22 -4 40 -10 40
-5 0 -10 -18 -10 -40z"/>
<path d="M1880 1520 c0 -22 5 -40 10 -40 6 0 10 18 10 40 0 22 -4 40 -10 40
-5 0 -10 -18 -10 -40z"/>
<path d="M2180 1520 c0 -22 5 -40 10 -40 6 0 10 18 10 40 0 22 -4 40 -10 40
-5 0 -10 -18 -10 -40z"/>
<path d="M1580 1380 c0 -22 5 -40 10 -40 6 0 10 18 10 40 0 22 -4 40 -10 40
-5 0 -10 -18 -10 -40z"/>
<path d="M1780 1380 c0 -22 5 -40 10 -40 6 0 10 18 10 40 0 22 -4 40 -10 40
-5 0 -10 -18 -10 -40z"/>
<path d="M2080 1380 c0 -22 5 -40 10 -40 6 0 10 18 10 40 0 22 -4 40 -10 40
-5 0 -10 -18 -10 -40z"/>
<path d="M2180 1380 c0 -22 5 -40 10 -40 6 0 10 18 10 40 0 22 -4 40 -10 40
-5 0 -10 -18 -10 -40z"/>
<path d="M2280 1380 c0 -22 5 -40 10 -40 6 0 10 18 10 40 0 22 -4 40 -10 40
-5 0 -10 -18 -10 -40z"/>
<path d="M1580 1220 c0 -22 5 -40 10 -40 6 0 10 18 10 40 0 22 -4 40 -10 40
-5 0 -10 -18 -10 -40z"/>
<path d="M1780 1220 c0 -22 5 -40 10 -40 6 0 10 18 10 40 0 22 -4 40 -10 40
-5 0 -10 -18 -10 -40z"/>
<path d="M1880 1220 c0 -22 5 -40 10 -40 6 0 10 18 10 40 0 22 -4 40 -10 40
-5 0 -10 -18 -10 -40z"/>
<path d="M1980 1220 c0 -22 5 -40 10 -40 6 0 10 18 10 40 0 22 -4 40 -10 40
-5 0 -10 -18 -10 -40z"/>
<path d="M2180 1220 c0 -22 5 -40 10 -40 6 0 10 18 10 40 0 22 -4 40 -10 40
-5 0 -10 -18 -10 -40z"/>
<path d="M2280 1220 c0 -22 5 -40 10 -40 6 0 10 18 10 40 0 22 -4 40 -10 40
-5 0 -10 -18 -10 -40z"/>
<path d="M1680 1060 c0 -11 5 -20 10 -20 6 0 10 9 10 20 0 11 -4 20 -10 20 -5
0 -10 -9 -10 -20z"/>
<path d="M1680 1010 c0 -5 5 -10 10 -10 6 0 10 5 10 10 0 6 -4 10 -10 10 -5 0
-10 -4 -10 -10z"/>
<path d="M1880 1050 c0 -16 5 -30 10 -30 6 0 10 14 10 30 0 17 -4 30 -10 30
-5 0 -10 -13 -10 -30z"/>
<path d="M1980 1060 c0 -11 5 -20 10 -20 6 0 10 9 10 20 0 11 -4 20 -10 20 -5
0 -10 -9 -10 -20z"/>
<path d="M1980 1010 c0 -5 5 -10 10 -10 6 0 10 5 10 10 0 6 -4 10 -10 10 -5 0
-10 -4 -10 -10z"/>
<path d="M2280 1040 c0 -22 5 -40 10 -40 6 0 10 18 10 40 0 22 -4 40 -10 40
-5 0 -10 -18 -10 -40z"/>
<path d="M1680 860 c0 -11 5 -20 10 -20 6 0 10 9 10 20 0 11 -4 20 -10 20 -5
0 -10 -9 -10 -20z"/>
<path d="M1980 860 c0 -22 5 -40 10 -40 6 0 10 18 10 40 0 22 -4 40 -10 40 -5
0 -10 -18 -10 -40z"/>
<path d="M2280 860 c0 -22 5 -40 10 -40 6 0 10 18 10 40 0 22 -4 40 -10 40 -5
0 -10 -18 -10 -40z"/>
<path d="M1680 700 c0 -11 5 -20 10 -20 6 0 10 9 10 20 0 11 -4 20 -10 20 -5
0 -10 -9 -10 -20z"/>
<path d="M1680 650 c0 -5 5 -10 10 -10 6 0 10 5 10 10 0 6 -4 10 -10 10 -5 0
-10 -4 -10 -10z"/>
<path d="M1880 690 c0 -16 5 -30 10 -30 6 0 10 14 10 30 0 17 -4 30 -10 30 -5
0 -10 -13 -10 -30z"/>
<path d="M1980 690 c0 -16 5 -30 10 -30 6 0 10 14 10 30 0 17 -4 30 -10 30 -5
0 -10 -13 -10 -30z"/>
</g>
</svg>
