<?xml version="1.0" encoding="UTF-8"?>
<svg xmlns="http://www.w3.org/2000/svg" xmlns:xlink="http://www.w3.org/1999/xlink" width="14px" height="14px" viewBox="0 0 14 14" version="1.1">
<g id="surface1">
<path style=" stroke:none;fill-rule:nonzero;fill:rgb(0%,0%,0%);fill-opacity:1;" d="M 0.875 7 L 0.875 13.125 L 13.125 13.125 L 13.125 0.875 L 0.875 0.875 Z M 5.25 5.25 C 5.25 6.960938 5.25 7 5.140625 7 C 5.070312 7 5.03125 6.960938 5.03125 6.890625 C 5.03125 6.785156 4.992188 6.78125 4.375 6.78125 C 3.757812 6.78125 3.71875 6.785156 3.71875 6.890625 C 3.71875 6.960938 3.679688 7 3.609375 7 C 3.5 7 3.5 6.960938 3.5 5.25 L 3.5 3.5 L 5.25 3.5 Z M 10.5 5.25 C 10.5 6.960938 10.5 7 10.390625 7 C 10.320312 7 10.28125 6.960938 10.28125 6.890625 C 10.28125 6.785156 10.242188 6.78125 9.625 6.78125 C 9.007812 6.78125 8.96875 6.785156 8.96875 6.890625 C 8.96875 6.960938 8.929688 7 8.859375 7 C 8.75 7 8.75 6.960938 8.75 5.25 L 8.75 3.5 L 10.5 3.5 Z M 3.582031 7.984375 C 3.679688 8.09375 3.75 8.09375 7 8.09375 C 10.25 8.09375 10.320312 8.09375 10.417969 7.984375 C 10.5 7.890625 10.585938 7.875 10.949219 7.875 L 11.375 7.875 L 11.375 8.078125 C 11.375 8.273438 11.304688 8.355469 9.832031 9.828125 L 8.285156 11.375 L 5.714844 11.375 L 4.167969 9.828125 C 2.695312 8.355469 2.625 8.273438 2.625 8.078125 L 2.625 7.875 L 3.050781 7.875 C 3.414062 7.875 3.5 7.890625 3.582031 7.984375 Z M 3.582031 7.984375 "/>
</g>
</svg>
