<?xml version="1.0" standalone="no"?>
<!DOCTYPE svg PUBLIC "-//W3C//DTD SVG 20010904//EN"
 "http://www.w3.org/TR/2001/REC-SVG-20010904/DTD/svg10.dtd">
<svg version="1.0" xmlns="http://www.w3.org/2000/svg"
 width="256.000000pt" height="256.000000pt" viewBox="0 0 256.000000 256.000000"
 preserveAspectRatio="xMidYMid meet">

<g transform="translate(0.000000,256.000000) scale(0.100000,-0.100000)"
fill="#000000" stroke="none">
<path d="M160 1280 l0 -1120 1120 0 1120 0 0 1120 0 1120 -1120 0 -1120 0 0
-1120z m800 320 c0 -313 0 -320 -20 -320 -13 0 -20 7 -20 20 0 19 -7 20 -120
20 -113 0 -120 -1 -120 -20 0 -13 -7 -20 -20 -20 -20 0 -20 7 -20 320 l0 320
160 0 160 0 0 -320z m960 0 c0 -313 0 -320 -20 -320 -13 0 -20 7 -20 20 0 19
-7 20 -120 20 -113 0 -120 -1 -120 -20 0 -13 -7 -20 -20 -20 -20 0 -20 7 -20
320 l0 320 160 0 160 0 0 -320z m-1265 -500 c18 -20 31 -20 625 -20 594 0 607
0 625 20 15 17 31 20 97 20 l78 0 0 -37 c0 -36 -13 -51 -282 -320 l-283 -283
-235 0 -235 0 -283 283 c-269 269 -282 284 -282 320 l0 37 78 0 c66 0 82 -3
97 -20z"/>
</g>
</svg>
